<svg width="25" height="25" viewBox="0 0 25 25" fill="none" xmlns="http://www.w3.org/2000/svg">
<path d="M12.8518 6.00615C11.6386 6.00615 10.4526 6.37525 9.44388 7.06679C8.43512 7.75833 7.64889 8.74124 7.18461 9.89123C6.72033 11.0412 6.59885 12.3066 6.83554 13.5275C7.07223 14.7483 7.65645 15.8697 8.51433 16.7498C9.37221 17.63 10.4652 18.2294 11.6551 18.4722C12.845 18.7151 14.0784 18.5904 15.1993 18.1141C16.3202 17.6378 17.2782 16.8311 17.9522 15.7961C18.6263 14.7612 18.986 13.5444 18.986 12.2997C18.9873 11.4728 18.8295 10.6538 18.5217 9.88965C18.2139 9.12549 17.7621 8.43117 17.1923 7.8465C16.6224 7.26182 15.9457 6.7983 15.2008 6.48249C14.456 6.16669 13.6578 6.00481 12.8518 6.00615ZM12.8518 16.3909C12.0632 16.3909 11.2922 16.151 10.6364 15.7014C9.98062 15.2519 9.46951 14.6129 9.16769 13.8653C8.86587 13.1177 8.7869 12.2951 8.94076 11.5015C9.09463 10.7078 9.47442 9.97885 10.0321 9.40667C10.5898 8.8345 11.3003 8.44484 12.0739 8.28698C12.8474 8.12912 13.6492 8.21014 14.3779 8.5198C15.1065 8.82946 15.7293 9.35385 16.1675 10.0267C16.6057 10.6995 16.8396 11.4905 16.8396 12.2997C16.8376 13.3841 16.4168 14.4235 15.6694 15.1904C14.922 15.9572 13.9088 16.3889 12.8518 16.3909ZM20.6678 5.74908C20.6678 6.03931 20.5839 6.32303 20.4268 6.56437C20.2696 6.8057 20.0463 6.99381 19.7849 7.10491C19.5236 7.21602 19.236 7.24513 18.9586 7.18856C18.6811 7.132 18.4262 6.99229 18.2261 6.78712C18.026 6.58195 17.8897 6.32051 17.8345 6.03587C17.7792 5.75123 17.8074 5.45617 17.9155 5.18798C18.0237 4.91979 18.2069 4.69053 18.4421 4.52917C18.6772 4.36781 18.9537 4.2816 19.2366 4.28145C19.4246 4.28094 19.6109 4.31854 19.7847 4.3921C19.9585 4.46567 20.1165 4.57374 20.2495 4.71012C20.3825 4.84649 20.4879 5.00848 20.5597 5.18677C20.6315 5.36507 20.6682 5.55616 20.6678 5.74908ZM24.7292 7.24163C24.7682 5.33398 24.0741 3.48716 22.7968 2.10026C21.4423 0.79427 19.6441 0.0828553 17.7856 0.117719C15.8115 0.00242717 9.88916 0.00242717 7.91505 0.117719C6.05712 0.0802218 4.25859 0.789803 2.90384 2.09481C1.62875 3.48312 0.934991 5.32898 0.971486 7.23618C0.859114 9.26157 0.859114 15.3377 0.971486 17.3631C0.932456 19.2708 1.62657 21.1176 2.90384 22.5045C4.25893 23.8096 6.05676 24.5208 7.91505 24.487C9.88916 24.6023 15.8115 24.6023 17.7856 24.487C19.645 24.5271 21.445 23.8149 22.7968 22.5045C24.0698 21.1148 24.7632 19.2699 24.7292 17.3631C24.8415 15.3377 24.8415 9.2678 24.7292 7.24085V7.24163ZM22.1788 19.535C21.9757 20.064 21.6687 20.5445 21.2768 20.9466C20.885 21.3487 20.4166 21.6636 19.901 21.8719C18.3262 22.5131 14.586 22.3651 12.8488 22.3651C11.1116 22.3651 7.36609 22.5076 5.79667 21.8719C5.28101 21.6636 4.81265 21.3487 4.42077 20.9466C4.0289 20.5445 3.72188 20.064 3.51885 19.535C2.89397 17.9193 3.03823 14.082 3.03823 12.2997C3.03823 10.5173 2.89928 6.67452 3.51885 5.06434C3.72188 4.53528 4.0289 4.05476 4.42077 3.6527C4.81265 3.25065 5.28101 2.93566 5.79667 2.72735C7.37141 2.08624 11.1116 2.23425 12.8488 2.23425C14.586 2.23425 18.3315 2.09169 19.901 2.72735C20.4166 2.93566 20.885 3.25065 21.2768 3.6527C21.6687 4.05476 21.9757 4.53528 22.1788 5.06434C22.8037 6.67998 22.6594 10.5173 22.6594 12.2997C22.6594 14.082 22.8029 17.9248 22.1788 19.535Z" fill="white"/>
</svg>
